<svg width="5179" height="1152" viewBox="0 0 5179 1152" fill="none" xmlns="http://www.w3.org/2000/svg">
<path d="M5041.34 42.4C5041.34 54.6666 5037.34 65.0667 5029.34 73.6C5020.8 81.6 5010.4 85.6 4998.14 85.6C4986.4 85.6 4976.54 81.3334 4968.54 72.8001C4960 64.2667 4955.74 54.1334 4955.74 42.4C4955.74 30.6667 4960 20.8 4968.54 12.8C4976.54 4.26667 4986.4 0 4998.14 0C5010.4 0 5020.8 4.26667 5029.34 12.8C5037.34 20.8 5041.34 30.6667 5041.34 42.4ZM5178.94 64C5178.94 112 5163.2 150.4 5131.74 179.2C5100.8 207.467 5056.54 221.6 4998.94 221.6C4940.8 221.6 4896.27 207.467 4865.34 179.2C4833.87 150.4 4818.14 112 4818.14 64H4900.54C4900.54 86.9334 4909.34 106.667 4926.94 123.2C4944 139.733 4968 148 4998.94 148C5029.34 148 5053.07 139.733 5070.14 123.2C5087.2 106.667 5095.74 86.9334 5095.74 64H5178.94Z" fill="white"/>
<path d="M4913.76 511.201C4895.09 511.201 4879.89 514.934 4868.16 522.401C4856.42 529.867 4850.56 542.134 4850.56 559.201C4850.56 569.867 4853.49 579.201 4859.36 587.201C4865.22 595.201 4873.22 601.334 4883.36 605.601C4894.56 603.467 4907.89 602.401 4923.36 602.401C4964.96 602.401 4999.36 610.401 5026.56 626.401C5054.29 642.401 5074.56 663.467 5087.36 689.601C5100.69 715.201 5106.82 743.467 5105.76 774.401H5008.96C5010.02 749.334 5002.82 728.267 4987.36 711.201C4971.89 693.601 4950.02 684.801 4921.76 684.801C4894.02 684.801 4871.62 693.334 4854.56 710.401C4838.02 727.467 4829.76 749.334 4829.76 776.001C4829.76 804.801 4838.29 827.734 4855.36 844.801C4872.96 861.867 4896.42 870.667 4925.76 871.201C4996.69 871.201 5048.69 893.334 5081.76 937.601C5114.82 982.401 5131.36 1039.2 5131.36 1108L5130.56 1145.6H5046.56V1102.4C5046.56 1054.4 5035.89 1017.07 5014.56 990.401C4993.22 964.267 4963.09 951.201 4924.16 951.201C4900.16 951.201 4880.42 956.801 4864.96 968.001C4849.49 979.734 4841.76 995.734 4841.76 1016C4841.76 1035.2 4848.16 1049.87 4860.96 1060C4874.29 1070.67 4890.82 1076 4910.56 1076H4934.56V1149.6C4920.69 1150.67 4910.56 1151.2 4904.16 1151.2C4862.02 1151.2 4827.09 1139.47 4799.36 1116C4772.16 1092.53 4758.56 1059.2 4758.56 1016C4758.56 971.734 4773.76 936.534 4804.16 910.401C4779.62 896.001 4760.96 877.067 4748.16 853.601C4735.36 830.134 4728.96 803.201 4728.96 772.801C4728.96 741.867 4735.62 714.401 4748.96 690.401C4762.29 666.401 4780.96 647.201 4804.96 632.801C4786.82 622.667 4772.69 609.867 4762.56 594.401C4752.96 578.401 4748.16 560.001 4748.16 539.201C4748.16 507.201 4759.62 482.134 4782.56 464.001C4806.02 445.867 4837.49 436.801 4876.96 436.801H4956.96V367.201H4660.16V280.801H5161.76V367.201H5055.36V511.201H4913.76Z" fill="white"/>
<path d="M4311.46 872.801V367.201H4222.66V280.801H4503.46V367.201H4414.66V872.801H4311.46Z" fill="white"/>
<path d="M4255.36 367.201H4167.36V872.801H4063.36V566.401H3956.96C3917.49 566.401 3886.29 576.001 3863.36 595.201C3840.42 614.401 3828.96 641.867 3828.96 677.601C3828.96 712.801 3839.09 740.534 3859.36 760.801C3879.62 780.534 3909.22 790.401 3948.16 790.401H3964.16V871.201H3932.16C3870.29 871.201 3820.16 854.667 3781.76 821.601C3743.36 788.534 3724.16 739.734 3724.16 675.201C3724.16 609.067 3745.22 559.734 3787.36 527.201C3829.49 494.134 3884.42 477.601 3952.16 477.601H4063.36V367.201H3660.16V280.801H4255.36V367.201Z" fill="white"/>
<path d="M3408.79 621.601V712.001C3408.79 736.001 3414.13 755.467 3424.79 770.401C3435.99 784.801 3452.26 792.001 3473.59 792.001C3493.33 792.001 3508.79 785.334 3519.99 772.001C3531.73 758.134 3537.59 740.001 3537.59 717.601V697.601H3636.79C3637.33 702.401 3637.59 708.001 3637.59 714.401C3637.59 765.067 3623.19 805.334 3594.39 835.201C3565.59 865.067 3525.86 880.001 3475.19 880.001C3420.79 880.001 3378.93 864.001 3349.59 832.001C3320.79 800.001 3306.39 758.401 3306.39 707.201V537.601H3388.79C3431.46 537.601 3462.39 528.001 3481.59 508.801C3501.33 489.067 3511.19 460.267 3511.19 422.401V367.201H3233.59V280.801H3692.79V367.201H3614.39V422.401C3614.39 555.201 3551.73 621.601 3426.39 621.601H3408.79Z" fill="white"/>
<path d="M2915.53 367.201V505.601C2927.26 485.334 2943.52 469.334 2964.32 457.601C2985.66 445.334 3010.73 439.201 3039.53 439.201C3072.59 439.201 3101.39 447.201 3125.93 463.201C3150.99 479.201 3170.19 501.067 3183.53 528.801C3196.86 556.534 3203.53 587.734 3203.53 622.401C3203.53 660.267 3196.33 693.067 3181.93 720.801C3168.06 748.001 3148.59 768.801 3123.53 783.201C3098.46 797.601 3069.93 804.801 3037.93 804.801C3019.26 804.801 3001.66 802.934 2985.12 799.201V717.601C2991.52 719.734 2999.79 720.801 3009.93 720.801C3036.06 720.801 3057.39 712.267 3073.93 695.201C3090.46 678.134 3098.73 654.667 3098.73 624.801C3098.73 596.534 3090.19 573.334 3073.12 555.201C3056.06 537.067 3034.19 528.001 3007.53 528.001C2977.66 528.001 2954.73 538.134 2938.73 558.401C2923.26 578.667 2915.53 603.201 2915.53 632.001V872.801H2816.32V743.201C2804.06 764.534 2786.72 781.334 2764.32 793.601C2741.92 805.334 2715.26 811.201 2684.32 811.201C2650.72 811.201 2621.39 803.467 2596.32 788.001C2571.26 772.534 2551.79 750.667 2537.93 722.401C2524.06 694.134 2517.12 661.601 2517.12 624.801C2517.12 588.001 2524.06 555.734 2537.93 528.001C2552.33 499.734 2572.33 477.867 2597.93 462.401C2624.06 446.934 2654.19 439.201 2688.32 439.201C2718.19 439.201 2743.79 445.067 2765.12 456.801C2786.46 468.001 2803.52 483.734 2816.32 504.001V367.201H2453.12V280.801H3266.73V367.201H2915.53ZM2718.73 724.801C2739.53 724.801 2757.13 720.001 2771.53 710.401C2786.46 700.801 2797.66 688.534 2805.12 673.601C2812.59 658.134 2816.32 642.134 2816.32 625.601C2816.32 598.934 2807.79 576.001 2790.73 556.801C2774.19 537.067 2750.46 527.201 2719.53 527.201C2691.79 527.201 2668.59 536.267 2649.93 554.401C2631.26 572.534 2621.93 596.267 2621.93 625.601C2621.93 655.467 2630.99 679.467 2649.12 697.601C2667.26 715.734 2690.46 724.801 2718.73 724.801Z" fill="white"/>
<path d="M2104.43 872.801V367.201H2015.62V280.801H2296.43V367.201H2207.62V872.801H2104.43Z" fill="white"/>
<path d="M2049.24 367.201H1960.44V872.801H1857.24V729.601C1840.7 750.934 1818.84 767.734 1791.64 780.001C1764.44 792.267 1732.44 798.401 1695.64 798.401C1652.44 798.401 1614.84 789.867 1582.84 772.801C1551.37 755.201 1526.84 730.934 1509.24 700.001C1492.17 669.067 1482.84 633.067 1481.24 592.001C1476.97 573.867 1468.17 558.667 1454.84 546.401C1441.5 534.134 1423.64 528.001 1401.24 528.001C1371.37 528.001 1348.7 538.134 1333.24 558.401C1318.3 578.134 1310.84 602.667 1310.84 632.001V872.801H1211.64V743.201C1199.37 764.534 1182.04 781.334 1159.64 793.601C1137.24 805.334 1110.57 811.201 1079.64 811.201C1046.04 811.201 1016.7 803.467 991.638 788.001C966.571 772.534 947.104 750.667 933.237 722.401C919.371 694.134 912.438 661.601 912.438 624.801C912.438 588.001 919.371 555.734 933.237 528.001C947.637 499.734 967.637 477.867 993.237 462.401C1019.37 446.934 1049.5 439.201 1083.64 439.201C1113.5 439.201 1139.1 445.067 1160.44 456.801C1181.77 468.001 1198.84 483.734 1211.64 504.001V367.201H848.438V280.801H2049.24V367.201ZM1434.04 444.801C1464.44 444.801 1490.3 452.001 1511.64 466.401C1533.5 480.801 1550.04 500.267 1561.24 524.801C1582.04 516.267 1597.24 503.201 1606.84 485.601C1616.97 468.001 1622.04 445.334 1622.04 417.601V367.201H1310.84V508.801C1322.57 488.534 1338.84 472.801 1359.64 461.601C1380.44 450.401 1405.24 444.801 1434.04 444.801ZM1857.24 367.201H1723.64V436.001C1723.64 530.934 1676.97 582.134 1583.64 589.601C1583.64 625.334 1595.64 654.667 1619.64 677.601C1643.64 700.534 1676.44 712.001 1718.04 712.001C1759.64 712.001 1793.24 699.201 1818.84 673.601C1844.44 648.001 1857.24 615.201 1857.24 575.201V367.201ZM1114.04 724.801C1134.84 724.801 1152.44 720.001 1166.84 710.401C1181.77 700.801 1192.97 688.534 1200.44 673.601C1207.9 658.134 1211.64 642.134 1211.64 625.601C1211.64 598.934 1203.1 576.001 1186.04 556.801C1169.5 537.067 1145.77 527.201 1114.84 527.201C1087.1 527.201 1063.9 536.267 1045.24 554.401C1026.57 572.534 1017.24 596.267 1017.24 625.601C1017.24 655.467 1026.3 679.467 1044.44 697.601C1062.57 715.734 1085.77 724.801 1114.04 724.801Z" fill="white"/>
<path d="M331.414 24.8008C374.081 24.8008 406.614 29.6008 429.014 39.2008C450.881 48.2674 474.347 70.1341 499.414 104.801C523.947 139.467 557.814 198.934 601.014 283.201H513.014C479.414 260.267 455.414 244.801 441.014 236.801C426.614 228.801 412.481 223.734 398.614 221.601C384.747 219.467 362.347 218.401 331.414 218.401H291.414V153.601H329.014C358.881 153.601 381.014 154.667 395.414 156.801C409.814 158.401 424.481 162.934 439.414 170.401C453.814 177.334 471.947 189.334 493.814 206.401C473.547 170.134 455.147 143.734 438.614 127.201C422.081 110.667 406.614 100.534 392.214 96.8008C377.281 92.5341 357.547 90.4008 333.014 90.4008H291.414V24.8008H331.414ZM730.614 161.601C730.614 178.667 724.481 193.334 712.214 205.601C700.481 217.334 685.814 223.201 668.214 223.201C650.614 223.201 635.947 217.334 624.214 205.601C611.947 193.334 605.814 178.667 605.814 161.601C605.814 144.001 611.947 129.334 624.214 117.601C635.947 105.334 650.614 99.2008 668.214 99.2008C685.814 99.2008 700.481 105.334 712.214 117.601C724.481 129.334 730.614 144.001 730.614 161.601Z" fill="white"/>
<path d="M690.4 367.201H601.6V872.801H497.6V588.801H378.4V636.001C378.4 691.467 364.267 734.667 336 765.601C308.267 796.534 268.267 812.001 216 812.001C166.4 812.001 126.4 797.867 96 769.601C66.1333 741.334 51.2 704.001 51.2 657.601C51.2 608.534 66.9333 570.934 98.4 544.801C130.4 518.134 171.467 504.801 221.6 504.801H282.4V367.201H0V280.801H690.4V367.201ZM497.6 367.201H378.4V504.801H497.6V367.201ZM282.4 588.801H224.8C201.333 588.801 182.4 594.934 168 607.201C154.133 618.934 147.2 635.467 147.2 656.801C147.2 677.601 153.333 694.134 165.6 706.401C178.4 718.667 194.667 724.801 214.4 724.801C235.733 724.801 252.267 717.334 264 702.401C276.267 687.467 282.4 667.201 282.4 641.601V588.801Z" fill="white"/>
</svg>
