<svg width="4963" height="822" viewBox="0 0 4963 822" fill="none" xmlns="http://www.w3.org/2000/svg">
<path d="M4962.83 222.4V308.8H4874.03V814.4H4770.83V308.8H4682.03V222.4H4774.03C4750.57 186.133 4731.37 160 4716.43 144C4702.03 127.467 4687.37 116.8 4672.43 112C4657.5 106.667 4636.97 104 4610.83 104H4571.63V20H4608.43C4651.1 20.5333 4684.7 25.0666 4709.23 33.6C4734.3 42.1333 4758.83 60.5333 4782.83 88.8C4807.37 116.533 4837.23 161.067 4872.43 222.4H4962.83Z" fill="white"/>
<path d="M4714.73 308.8H4626.73V814.4H4522.73V508H4416.33C4376.86 508 4345.66 517.6 4322.73 536.8C4299.8 556 4288.33 583.467 4288.33 619.2C4288.33 654.4 4298.46 682.134 4318.73 702.4C4339 722.134 4368.6 732 4407.53 732H4423.53V812.8H4391.53C4329.66 812.8 4279.53 796.267 4241.13 763.2C4202.73 730.134 4183.53 681.334 4183.53 616.8C4183.53 550.667 4204.6 501.334 4246.73 468.8C4288.86 435.734 4343.8 419.2 4411.53 419.2H4522.73V308.8H4119.53V222.4H4714.73V308.8Z" fill="white"/>
<path d="M3868.17 563.2V653.6C3868.17 677.6 3873.5 697.067 3884.17 712C3895.37 726.4 3911.64 733.6 3932.97 733.6C3952.7 733.6 3968.17 726.934 3979.37 713.6C3991.1 699.734 3996.97 681.6 3996.97 659.2V639.2H4096.17C4096.7 644 4096.97 649.6 4096.97 656C4096.97 706.667 4082.57 746.934 4053.77 776.8C4024.97 806.667 3985.24 821.6 3934.57 821.6C3880.17 821.6 3838.3 805.6 3808.97 773.6C3780.17 741.6 3765.77 700 3765.77 648.8V479.2H3848.17C3890.84 479.2 3921.77 469.6 3940.97 450.4C3960.7 430.667 3970.57 401.867 3970.57 364V308.8H3692.97V222.4H4152.17V308.8H4073.77V364C4073.77 496.8 4011.1 563.2 3885.77 563.2H3868.17Z" fill="white"/>
<path d="M3374.9 308.8V447.2C3386.63 426.934 3402.9 410.934 3423.7 399.2C3445.03 386.934 3470.1 380.8 3498.9 380.8C3531.97 380.8 3560.77 388.8 3585.3 404.8C3610.37 420.8 3629.57 442.667 3642.9 470.4C3656.23 498.134 3662.9 529.334 3662.9 564C3662.9 601.867 3655.7 634.667 3641.3 662.4C3627.43 689.6 3607.97 710.4 3582.9 724.8C3557.83 739.2 3529.3 746.4 3497.3 746.4C3478.63 746.4 3461.03 744.534 3444.5 740.8V659.2C3450.9 661.334 3459.17 662.4 3469.3 662.4C3495.43 662.4 3516.77 653.867 3533.3 636.8C3549.83 619.734 3558.1 596.267 3558.1 566.4C3558.1 538.134 3549.57 514.934 3532.5 496.8C3515.43 478.667 3493.57 469.6 3466.9 469.6C3437.03 469.6 3414.1 479.734 3398.1 500C3382.63 520.267 3374.9 544.8 3374.9 573.6V814.4H3275.7V684.8C3263.43 706.134 3246.1 722.934 3223.7 735.2C3201.3 746.934 3174.63 752.8 3143.7 752.8C3110.1 752.8 3080.77 745.067 3055.7 729.6C3030.63 714.134 3011.17 692.267 2997.3 664C2983.43 635.734 2976.5 603.2 2976.5 566.4C2976.5 529.6 2983.43 497.334 2997.3 469.6C3011.7 441.334 3031.7 419.467 3057.3 404C3083.43 388.534 3113.57 380.8 3147.7 380.8C3177.57 380.8 3203.17 386.667 3224.5 398.4C3245.83 409.6 3262.9 425.334 3275.7 445.6V308.8H2912.5V222.4H3726.1V308.8H3374.9ZM3178.1 666.4C3198.9 666.4 3216.5 661.6 3230.9 652C3245.83 642.4 3257.03 630.134 3264.5 615.2C3271.97 599.734 3275.7 583.734 3275.7 567.2C3275.7 540.534 3267.17 517.6 3250.1 498.4C3233.57 478.667 3209.83 468.8 3178.9 468.8C3151.17 468.8 3127.97 477.867 3109.3 496C3090.63 514.134 3081.3 537.867 3081.3 567.2C3081.3 597.067 3090.37 621.067 3108.5 639.2C3126.63 657.334 3149.83 666.4 3178.1 666.4Z" fill="white"/>
<path d="M2755.46 308.8H2666.66V814.4H2563.46V671.2C2546.92 692.534 2525.06 709.334 2497.86 721.6C2470.66 733.867 2438.92 740 2402.66 740C2334.39 740 2281.32 719.734 2243.46 679.2C2206.12 638.667 2187.46 583.734 2187.46 514.4C2187.46 504.8 2188.52 489.867 2190.66 469.6H2200.26C2245.06 469.6 2277.32 460 2297.06 440.8C2317.32 421.6 2327.46 392 2327.46 352V308.8H2122.66V222.4H2755.46V308.8ZM2563.46 308.8H2429.86V370.4C2429.86 416.8 2418.12 453.334 2394.66 480C2371.72 506.134 2336.79 521.067 2289.86 524.8C2289.86 563.734 2301.59 594.934 2325.06 618.4C2349.06 641.867 2382.12 653.6 2424.26 653.6C2465.86 653.6 2499.46 640.8 2525.06 615.2C2550.66 589.6 2563.46 556.8 2563.46 516.8V308.8Z" fill="white"/>
<path d="M1964.58 814.4V308.8H1875.78V222.4H2156.58V308.8H2067.78V814.4H1964.58Z" fill="white"/>
<path d="M1557.71 308.8V447.2C1569.45 426.934 1585.71 410.934 1606.51 399.2C1627.85 386.934 1652.91 380.8 1681.71 380.8C1714.78 380.8 1743.58 388.8 1768.11 404.8C1793.18 420.8 1812.38 442.667 1825.71 470.4C1839.05 498.134 1845.71 529.334 1845.71 564C1845.71 601.867 1838.51 634.667 1824.11 662.4C1810.25 689.6 1790.78 710.4 1765.71 724.8C1740.65 739.2 1712.11 746.4 1680.11 746.4C1661.45 746.4 1643.85 744.534 1627.31 740.8V659.2C1633.71 661.334 1641.98 662.4 1652.11 662.4C1678.25 662.4 1699.58 653.867 1716.11 636.8C1732.65 619.734 1740.91 596.267 1740.91 566.4C1740.91 538.134 1732.38 514.934 1715.31 496.8C1698.25 478.667 1676.38 469.6 1649.71 469.6C1619.85 469.6 1596.91 479.734 1580.91 500C1565.45 520.267 1557.71 544.8 1557.71 573.6V814.4H1458.51V684.8C1446.25 706.134 1428.91 722.934 1406.51 735.2C1384.11 746.934 1357.45 752.8 1326.51 752.8C1292.91 752.8 1263.58 745.067 1238.51 729.6C1213.45 714.134 1193.98 692.267 1180.11 664C1166.25 635.734 1159.31 603.2 1159.31 566.4C1159.31 529.6 1166.25 497.334 1180.11 469.6C1194.51 441.334 1214.51 419.467 1240.11 404C1266.25 388.534 1296.38 380.8 1330.51 380.8C1360.38 380.8 1385.98 386.667 1407.31 398.4C1428.65 409.6 1445.71 425.334 1458.51 445.6V308.8H1095.31V222.4H1908.91V308.8H1557.71ZM1360.91 666.4C1381.71 666.4 1399.31 661.6 1413.71 652C1428.65 642.4 1439.85 630.134 1447.31 615.2C1454.78 599.734 1458.51 583.734 1458.51 567.2C1458.51 540.534 1449.98 517.6 1432.91 498.4C1416.38 478.667 1392.65 468.8 1361.71 468.8C1333.98 468.8 1310.78 477.867 1292.11 496C1273.45 514.134 1264.11 537.867 1264.11 567.2C1264.11 597.067 1273.18 621.067 1291.31 639.2C1309.45 657.334 1332.65 666.4 1360.91 666.4Z" fill="white"/>
<path d="M938.614 222.4V308.8H849.814V814.4H746.614V308.8H657.814V222.4H749.814V190.4C749.814 161.6 744.481 137.333 733.814 117.6C723.147 97.3333 703.681 87.2 675.414 87.2C646.614 87.2 626.881 97.3333 616.214 117.6C605.014 137.333 599.414 161.6 599.414 190.4V245.6H499.414V196C499.414 135.733 513.547 88 541.814 52.8C569.547 17.6 614.081 0 675.414 0C791.681 0 849.814 65.3333 849.814 196V222.4H938.614Z" fill="white"/>
<path d="M690.4 308.8H601.6V814.4H497.6V530.4H378.4V577.6C378.4 633.067 364.267 676.267 336 707.2C308.267 738.134 268.267 753.6 216 753.6C166.4 753.6 126.4 739.467 96 711.2C66.1333 682.934 51.2 645.6 51.2 599.2C51.2 550.134 66.9333 512.534 98.4 486.4C130.4 459.734 171.467 446.4 221.6 446.4H282.4V308.8H0V222.4H690.4V308.8ZM497.6 308.8H378.4V446.4H497.6V308.8ZM282.4 530.4H224.8C201.333 530.4 182.4 536.534 168 548.8C154.133 560.534 147.2 577.067 147.2 598.4C147.2 619.2 153.333 635.734 165.6 648C178.4 660.267 194.667 666.4 214.4 666.4C235.733 666.4 252.267 658.934 264 644C276.267 629.067 282.4 608.8 282.4 583.2V530.4Z" fill="white"/>
</svg>
